<svg width="106" height="79" viewBox="0 0 106 79" fill="none" xmlns="http://www.w3.org/2000/svg">
<path d="M82.6006 10.8977C82.3193 10.499 82.3734 9.96247 82.7598 9.61623C83.2032 9.21889 83.9168 9.2236 84.3543 9.62632C87.0075 12.0709 89.4571 15.8573 89.5607 16.0167C89.8746 16.5048 89.694 17.132 89.1565 17.4178C88.6198 17.7035 87.9321 17.5374 87.6138 17.0514C87.5901 17.0137 85.1997 13.3241 82.7479 11.0651C82.6917 11.0126 82.6428 10.9568 82.6006 10.8977Z" fill="#FF9843"/>
<path d="M80.7608 11.3215C80.4795 10.9228 80.5335 10.3863 80.9199 10.0401C81.3634 9.64272 82.077 9.64743 82.5145 10.0501C85.1677 12.4947 87.6172 16.2805 87.7209 16.4398C88.0347 16.9279 87.8541 17.5552 87.3167 17.8409C86.7792 18.1267 86.0982 17.9593 85.7739 17.4745C85.751 17.4369 83.3614 13.7479 80.9074 11.4882C80.8518 11.4365 80.8023 11.3807 80.7608 11.3215Z" fill="#FF9843"/>
<path d="M78.9098 11.7466C78.6285 11.3479 78.6825 10.8107 79.0682 10.4651C79.5117 10.0685 80.226 10.0725 80.6628 10.4759C83.3152 12.9204 85.7662 16.7062 85.8691 16.8656C86.183 17.3537 86.0031 17.9809 85.4649 18.2667C84.9275 18.5524 84.2464 18.3769 83.9222 17.9003C83.8985 17.8626 81.5082 14.1736 79.0556 11.914C79.0009 11.8615 78.952 11.8057 78.9098 11.7466Z" fill="#FF9843"/>
<path d="M77.07 12.1701C76.7887 11.7714 76.8419 11.2342 77.2284 10.8887C77.6718 10.492 78.3862 10.496 78.8229 10.8994C81.4753 13.3446 83.9264 17.1298 84.0293 17.2891C84.3432 17.7772 84.1633 18.4045 83.6251 18.6902C83.0877 18.9759 82.3977 18.8079 82.0824 18.3238C82.0594 18.2861 79.6683 14.5972 77.2158 12.3375C77.161 12.2851 77.1114 12.2293 77.07 12.1701Z" fill="#FF9843"/>
<path d="M89.1858 15.4548C90.3828 17.2559 93.4816 18.7612 92.6658 22.1127C91.6361 26.3422 82.4011 25.2356 82.4011 25.2356C81.7904 23.0734 80.3831 21.32 80.0989 21.1015C79.8146 20.883 80.6511 20.5186 80.6511 20.5186L81.0783 19.1962C82.1405 19.5747 82.2753 18.6442 81.9251 18.0822C81.5742 17.5194 89.1858 15.4548 89.1858 15.4548Z" fill="#FF9843"/>
<path d="M79.6157 11.3438C79.5239 11.2549 79.3774 11.2574 79.2885 11.3492C79.1996 11.441 79.2018 11.5875 79.2936 11.6764C80.4853 12.8304 81.6115 14.1679 82.4411 15.2197C82.8554 15.7449 83.1948 16.1979 83.4306 16.5193C83.5484 16.6799 83.6406 16.8076 83.703 16.895C83.7341 16.9387 83.7578 16.9724 83.7738 16.995C83.7817 17.0063 83.7876 17.015 83.7915 17.0206C83.7935 17.0235 83.7951 17.0256 83.7961 17.027C83.7965 17.0277 83.797 17.0282 83.7973 17.0285V17.0288H83.7976L83.812 17.0475C83.8884 17.1365 84.0213 17.1551 84.1197 17.0866C84.2245 17.0136 84.2502 16.8694 84.1772 16.7645V16.7642L84.1769 16.7639C84.1766 16.7635 84.1762 16.7628 84.1757 16.7621C84.1746 16.7606 84.173 16.7582 84.1709 16.7552C84.1667 16.7492 84.1604 16.7403 84.1522 16.7287C84.1358 16.7053 84.1113 16.6707 84.0796 16.6262C84.0162 16.5373 83.923 16.408 83.8039 16.2457C83.5655 15.9208 83.2227 15.4634 82.8044 14.9331C81.9688 13.8736 80.8284 12.518 79.6157 11.3438Z" fill="#002060"/>
<path d="M81.3032 10.8302C81.2114 10.7413 81.0649 10.7438 80.976 10.8356C80.8871 10.9275 80.8893 11.074 80.9811 11.1629C82.1728 12.3168 83.299 13.6544 84.1286 14.7061C84.5429 15.2314 84.8823 15.6844 85.1181 16.0057C85.2359 16.1663 85.3281 16.2941 85.3905 16.3814C85.4216 16.4251 85.4453 16.4589 85.4613 16.4815C85.4692 16.4928 85.4751 16.5014 85.479 16.5071C85.481 16.5099 85.4826 16.512 85.4836 16.5134C85.484 16.5141 85.4845 16.5146 85.4848 16.5149V16.5152H85.4851L85.4995 16.5339C85.5759 16.623 85.7088 16.6415 85.8072 16.5731C85.912 16.5001 85.9377 16.3559 85.8647 16.251V16.2507L85.8644 16.2504C85.8641 16.25 85.8637 16.2493 85.8632 16.2486C85.8621 16.247 85.8605 16.2446 85.8584 16.2416C85.8542 16.2356 85.8479 16.2267 85.8397 16.2151C85.8233 16.1918 85.7988 16.1571 85.7671 16.1127C85.7037 16.0237 85.6105 15.8944 85.4914 15.7321C85.253 15.4072 84.9102 14.9498 84.4919 14.4196C83.6563 13.3601 82.5159 12.0045 81.3032 10.8302Z" fill="#002060"/>
<path d="M83.1821 10.3858C83.0903 10.2969 82.9438 10.2994 82.8549 10.3912C82.766 10.483 82.7682 10.6295 82.86 10.7184C84.0517 11.8724 85.1779 13.2099 86.0075 14.2617C86.4218 14.7869 86.7612 15.2399 86.997 15.5612C87.1149 15.7219 87.207 15.8496 87.2694 15.937C87.3005 15.9807 87.3242 16.0144 87.3402 16.037C87.3481 16.0483 87.354 16.057 87.3579 16.0626C87.3599 16.0655 87.3615 16.0676 87.3625 16.069C87.3629 16.0696 87.3634 16.0702 87.3637 16.0705V16.0708H87.364L87.3784 16.0895C87.4548 16.1785 87.5877 16.1971 87.6861 16.1286C87.7909 16.0556 87.8166 15.9114 87.7436 15.8065V15.8062L87.7433 15.8059C87.743 15.8055 87.7426 15.8048 87.7421 15.8041C87.741 15.8026 87.7394 15.8002 87.7373 15.7972C87.7331 15.7912 87.7268 15.7823 87.7186 15.7707C87.7022 15.7473 87.6777 15.7127 87.646 15.6682C87.5826 15.5793 87.4894 15.45 87.3703 15.2876C87.1319 14.9628 86.7891 14.5054 86.3709 13.9751C85.5352 12.9156 84.3948 11.56 83.1821 10.3858Z" fill="#002060"/>
<path d="M88.04 19.9877C87.289 19.2881 86.2347 18.8084 85.0595 19.1364L84.9456 19.1708L84.9233 19.1792C84.8159 19.2263 84.7595 19.3479 84.7962 19.4619C84.8329 19.5759 84.9496 19.6418 85.0643 19.6174L85.0872 19.6113L85.1818 19.583C86.1548 19.311 87.0481 19.6963 87.7246 20.3264C88.073 20.6509 88.3565 21.0345 88.5526 21.4102C88.7503 21.7891 88.8509 22.1438 88.8536 22.4106L88.8551 22.4344C88.8681 22.5509 88.9676 22.6411 89.0874 22.6399C89.2151 22.6386 89.3177 22.5338 89.3164 22.4061L89.3143 22.3371C89.296 21.9881 89.1669 21.5876 88.9627 21.1963C88.7432 20.7756 88.4283 20.3494 88.04 19.9877Z" fill="#002060"/>
<rect width="33.0118" height="18.5408" transform="matrix(0.995992 0.0894464 -0.0894369 0.995993 72.7578 0)" fill="#FFDBE1"/>
<rect width="4.53204" height="18.5408" transform="matrix(0.995992 0.0894464 -0.0894369 0.995993 95.2734 2.02271)" fill="#FF4664"/>
<path d="M81.2148 6.73814C80.7987 6.70077 80.4828 6.49018 80.2673 6.10639C80.0559 5.72297 79.9806 5.19285 80.0414 4.51605C80.1022 3.83924 80.2701 3.33733 80.5453 3.01031C80.8246 2.68367 81.1724 2.53904 81.5885 2.57641C82.0047 2.61379 82.319 2.81788 82.5315 3.18869C82.7482 3.55987 82.8261 4.08387 82.7653 4.76067C82.7046 5.43748 82.5339 5.94551 82.2535 6.28476C81.9772 6.62439 81.631 6.77552 81.2148 6.73814ZM81.2658 6.17063C81.3961 6.18234 81.516 6.14437 81.6256 6.05675C81.7355 5.96492 81.8278 5.81006 81.9025 5.59217C81.9814 5.37465 82.0378 5.07672 82.0717 4.69839C82.1057 4.32005 82.1031 4.01894 82.0639 3.79506C82.0289 3.57155 81.9649 3.41113 81.8719 3.31379C81.7793 3.21225 81.6679 3.15563 81.5376 3.14392C81.4115 3.1326 81.2938 3.16865 81.1846 3.25207C81.0758 3.33129 80.9822 3.47755 80.9037 3.69086C80.8252 3.90417 80.769 4.2 80.735 4.57834C80.701 4.95668 80.7035 5.25989 80.7423 5.48797C80.7811 5.71606 80.8465 5.88507 80.9383 5.99503C81.0305 6.10077 81.1397 6.15931 81.2658 6.17063Z" fill="#FF4664"/>
<path d="M77.9765 6.44792C77.5604 6.41055 77.2445 6.19996 77.029 5.81616C76.8176 5.43274 76.7424 4.90263 76.8031 4.22583C76.8639 3.54902 77.0319 3.04711 77.307 2.72009C77.5863 2.39345 77.9341 2.24882 78.3502 2.28619C78.7664 2.32357 79.0807 2.52766 79.2932 2.89847C79.5099 3.26965 79.5878 3.79365 79.5271 4.47045C79.4663 5.14726 79.2957 5.65529 79.0152 5.99454C78.7389 6.33417 78.3927 6.48529 77.9765 6.44792ZM78.0275 5.88041C78.1578 5.89211 78.2778 5.85415 78.3873 5.76653C78.4973 5.6747 78.5896 5.51984 78.6642 5.30194C78.7431 5.08443 78.7995 4.7865 78.8335 4.40816C78.8674 4.02982 78.8648 3.72871 78.8256 3.50483C78.7906 3.28133 78.7266 3.12091 78.6336 3.02357C78.541 2.92203 78.4296 2.8654 78.2993 2.8537C78.1732 2.84238 78.0555 2.87842 77.9463 2.96185C77.8375 3.04107 77.7439 3.18733 77.6654 3.40064C77.5869 3.61395 77.5307 3.90978 77.4967 4.28811C77.4627 4.66645 77.4652 4.96967 77.504 5.19775C77.5429 5.42584 77.6082 5.59485 77.7 5.7048C77.7922 5.81055 77.9014 5.86909 78.0275 5.88041Z" fill="#FF4664"/>
<path d="M73.6086 5.97859L73.6619 5.38586L74.5572 5.46627L74.7939 2.83051L74.0562 2.76426L74.0969 2.31025C74.2979 2.29016 74.4742 2.2615 74.6259 2.22427C74.7779 2.18283 74.9204 2.12994 75.0533 2.0656L75.5955 2.1143L75.2887 5.53196L76.0768 5.60274L76.0236 6.19547L73.6086 5.97859Z" fill="#FF4664"/>
<path d="M97.8412 14.5955C97.8145 14.8928 97.6641 15.1184 97.3899 15.2724C97.1161 15.4234 96.7374 15.4771 96.254 15.4337C95.7706 15.3903 95.4121 15.2703 95.1785 15.0738C94.9452 14.8743 94.8419 14.6258 94.8686 14.3286C94.8953 14.0313 95.0411 13.8068 95.3059 13.655C95.5711 13.5002 95.9453 13.4446 96.4287 13.488C96.9121 13.5314 97.275 13.6533 97.5173 13.8536C97.7599 14.051 97.8679 14.2983 97.8412 14.5955ZM97.4358 14.5591C97.4442 14.466 97.4171 14.3804 97.3545 14.3021C97.2889 14.2236 97.1783 14.1576 97.0226 14.1043C96.8673 14.048 96.6545 14.0077 96.3842 13.9834C96.114 13.9591 95.8989 13.961 95.739 13.989C95.5794 14.0141 95.4648 14.0598 95.3953 14.1262C95.3228 14.1923 95.2823 14.2719 95.274 14.365C95.2659 14.4551 95.2916 14.5391 95.3512 14.6171C95.4078 14.6948 95.5123 14.7617 95.6646 14.8178C95.817 14.8738 96.0283 14.914 96.2985 14.9383C96.5687 14.9625 96.7853 14.9608 96.9482 14.9331C97.1111 14.9053 97.2318 14.8586 97.3104 14.793C97.3859 14.7272 97.4277 14.6492 97.4358 14.5591Z" fill="white"/>
<path d="M97.6302 16.9047C97.6035 17.2019 97.4531 17.4276 97.179 17.5815C96.9051 17.7325 96.5265 17.7863 96.0431 17.7429C95.5597 17.6994 95.2012 17.5795 94.9676 17.3829C94.7343 17.1834 94.631 16.935 94.6577 16.6377C94.6844 16.3405 94.8301 16.1159 95.095 15.9642C95.3601 15.8094 95.7344 15.7537 96.2178 15.7971C96.7012 15.8405 97.0641 15.9624 97.3064 16.1628C97.549 16.3601 97.6569 16.6074 97.6302 16.9047ZM97.2249 16.8683C97.2332 16.7752 97.2061 16.6895 97.1435 16.6113C97.0779 16.5327 96.9673 16.4668 96.8117 16.4135C96.6563 16.3571 96.4435 16.3168 96.1733 16.2926C95.9031 16.2683 95.688 16.2702 95.5281 16.2982C95.3685 16.3232 95.2539 16.3689 95.1843 16.4353C95.1118 16.5014 95.0714 16.581 95.063 16.6741C95.0549 16.7642 95.0807 16.8482 95.1403 16.9262C95.1968 17.004 95.3013 17.0709 95.4537 17.1269C95.606 17.183 95.8173 17.2231 96.0876 17.2474C96.3578 17.2717 96.5744 17.2699 96.7373 17.2422C96.9002 17.2145 97.0209 17.1678 97.0994 17.1022C97.175 17.0363 97.2168 16.9584 97.2249 16.8683Z" fill="white"/>
<path d="M97.2941 20.0292L96.8708 19.9911L96.9282 19.3516L95.0456 19.1825L94.9983 19.7095L94.674 19.6803C94.6596 19.5368 94.6392 19.4108 94.6126 19.3025C94.583 19.1939 94.5452 19.0922 94.4993 18.9972L94.534 18.6099L96.9751 18.8291L97.0257 18.2661L97.449 18.3041L97.2941 20.0292Z" fill="white"/>
<rect width="7.26156" height="1.39056" transform="matrix(0.995992 0.0894464 -0.0894369 0.995993 77.7148 10.4253)" fill="#FFECEF"/>
<rect width="4.06853" height="1.33906" transform="matrix(0.995992 0.0894464 -0.0894369 0.995993 87.0273 8.10687)" fill="#FF4664"/>
<rect width="7.26156" height="1.33906" transform="matrix(0.995992 0.0894464 -0.0894369 0.995993 83.3594 13.2074)" fill="#FFA5B3"/>
<rect width="7.21006" height="1.39056" transform="matrix(0.995992 0.0894459 -0.0894374 0.995992 73.8008 13.6935)" fill="#FFA5B3"/>
<rect width="10.4031" height="1.39056" transform="matrix(0.995992 0.0894464 -0.0894369 0.995993 78.5781 16.3972)" fill="#FF4664"/>
<path d="M76.6398 19.438C76.4888 19.2235 76.4243 18.9579 76.4828 18.689C76.6027 18.135 77.192 17.7733 77.8013 17.8809C77.939 17.9051 81.1858 18.5021 82.6012 20.6985C82.9136 21.1873 82.7315 21.8146 82.1933 22.099C81.6551 22.3834 80.9622 22.2166 80.6513 21.7285C79.7734 20.3415 77.3941 19.8958 77.3704 19.8911C77.0565 19.8346 76.7997 19.6645 76.6398 19.438Z" fill="#FF9843"/>
<path d="M26.9302 73.1152C31.5518 68.3425 41.5848 57.626 43.2112 54.6994C55.824 64.4487 69.3925 63.295 78.5105 58.5007C78.6275 58.4381 78.7407 58.3783 78.8577 58.3158C79.1086 58.18 79.3566 58.0415 79.5994 57.8976C80.0836 57.6206 80.5559 57.3329 81.0193 57.0317C92.78 49.4244 97.5659 35.412 92.6631 22.1143L82.3977 25.2365C86.5114 36.3788 80.7476 45.6911 73.5728 49.7256C73.4862 49.7774 73.3967 49.8258 73.3071 49.8749C73.1035 49.9838 72.9007 50.092 72.6971 50.1895C72.3173 50.3825 71.9376 50.5586 71.5489 50.722C63.6865 54.0721 54.7928 51.9194 47.4063 44.7707C46.6527 44.0486 45.8939 43.3373 45.1403 42.6475C41.4397 39.2321 30.4191 30.23 26.9302 27.4467" fill="#002060"/>
<path d="M73.5729 49.7256C76.0543 52.1634 78.5349 54.5965 81.0193 57.0317C92.78 49.4244 97.5659 35.412 92.6631 22.1143L82.3977 25.2365C86.5114 36.3788 80.7476 45.6911 73.5729 49.7256Z" fill="#FF9843"/>
<path d="M40.668 39.0349C40.631 39.0894 40.5932 39.1432 40.5562 39.1963C37.4433 43.6282 30.0472 42.6338 28.3106 37.6191C26.4873 32.3542 28.8117 28.8843 28.8117 28.8843L40.668 39.0349Z" fill="#FF9843"/>
<path d="M46.0596 14.3051C46.5652 14.3629 47.0264 14.7771 47.0893 15.2362C47.2551 14.416 48.1909 13.7894 49.1029 13.8876C50.0149 13.9857 50.7626 14.7939 50.713 15.6262C51.4384 15.1838 52.4008 15.0016 53.2033 15.3156C54.0057 15.6296 54.5395 16.5157 54.2337 17.2592C55.2057 16.7053 56.5537 16.7604 57.4665 17.3924C58.3793 18.0243 58.7953 19.1901 58.4644 20.1885C59.2609 20.0816 60.0863 20.5374 60.4158 21.2037C60.7459 21.8706 60.6001 22.6922 60.116 23.2758C59.6318 23.86 58.8449 24.2083 58.0432 24.2701C58.6635 24.6796 58.7909 25.5307 58.4533 26.156C58.1157 26.7812 57.4117 27.1907 56.6744 27.3809C55.9371 27.5712 55.1583 27.5705 54.3921 27.5685L39.9516 23.2549C39.7399 22.0589 40.0145 20.797 40.7104 19.7636C40.8821 19.5088 41.0842 19.2621 41.3566 19.0947C41.6291 18.9273 41.9836 18.8479 42.2946 18.9468C42.0325 18.4519 41.8578 17.9047 41.9096 17.3574C41.9622 16.8108 42.2686 16.2656 42.7913 15.9899C43.3139 15.7143 44.0535 15.7687 44.4503 16.1829C44.3503 15.7291 44.4369 15.2336 44.7352 14.8584C45.0343 14.4833 45.554 14.2473 46.0596 14.3051Z" fill="#002060"/>
<path d="M55.1779 27.0241C52.5551 30.5282 49.1128 35.2754 45.7505 34.784C44.6785 34.6273 43.5437 33.6531 43.5437 33.6531L37.8354 38.4958L30.2957 31.1158L43.2187 20.3669L49.4385 19.3698C49.4385 19.3691 57.5393 23.8347 55.1779 27.0241Z" fill="#FF9843"/>
<path d="M55.9858 26.5277C55.9103 26.7664 55.6268 26.919 55.3529 26.915C55.079 26.911 54.8244 26.7758 54.6341 26.5977C54.4439 26.4188 54.3091 26.199 54.1781 25.9812C53.8146 25.3794 53.4511 24.7582 53.3438 24.0785C53.1906 24.2836 52.8715 24.3515 52.6117 24.2755C52.3518 24.2002 52.1497 24.0059 52.0209 23.7874C51.8921 23.5689 51.8277 23.3242 51.7641 23.0835C51.5827 23.2811 51.2414 23.306 50.9845 23.1984C50.7277 23.0909 50.5411 22.8798 50.3931 22.6606C50.0533 22.1577 49.8638 21.5721 49.849 20.9818C49.5721 21.2198 49.182 21.324 48.8015 21.3025C48.421 21.281 48.0538 21.1102 47.8117 20.8433C47.7481 21.0833 47.6763 21.3045 47.5445 21.5203C47.4127 21.7362 47.2099 21.9264 46.9523 22.0037C46.6939 22.0811 46.3793 22.0246 46.2112 21.8303C46.1839 22.1732 46.0328 22.5207 45.7367 22.7345C45.4406 22.9483 44.9868 22.9954 44.6826 22.7903C44.6826 22.5315 44.616 22.2727 44.5516 22.0205C44.4871 21.7684 44.3524 21.5224 44.1274 21.3644C43.9023 21.2057 43.5773 21.1512 43.3249 21.2709C43.0902 21.3825 42.9585 21.6151 42.8733 21.8431C42.6964 22.3197 42.6624 22.8401 42.7756 23.3322C41.7533 23.743 40.5637 23.8546 39.4918 23.5662C40.8502 21.9244 42.1997 20.2409 43.9675 18.9602C44.8987 18.2858 45.9433 17.7191 47.0914 17.4313C48.2396 17.1436 49.4995 17.151 50.5914 17.5826C51.8892 18.0956 52.8256 19.1356 53.7102 20.1394C54.6112 21.162 55.5195 22.1947 56.1635 23.3665C56.4426 23.8748 56.6728 24.4167 56.7165 24.9834C56.7602 25.5489 56.1583 25.9812 55.9858 26.5277Z" fill="#002060"/>
<path d="M43.5078 33.555C41.3706 31.7633 40.999 29.3214 40.999 29.3214C40.999 29.3214 39.4422 32.5169 42.0917 34.8835L43.5078 33.555Z" fill="#002060"/>
<path d="M49.7579 26.5826C49.6309 26.5681 49.5163 26.6593 49.5018 26.7863C49.4873 26.9132 49.5783 27.0278 49.7051 27.0424C49.9497 27.0704 50.1765 27.1916 50.3189 27.3618L50.3192 27.3621C50.4612 27.5311 50.5218 27.7506 50.4898 27.9536C50.4698 28.0798 50.5561 28.1982 50.6823 28.2181C50.8085 28.2381 50.9269 28.1521 50.9468 28.0259C51.0006 27.6858 50.8986 27.3323 50.6736 27.0644C50.4503 26.7977 50.1128 26.6232 49.7579 26.5826Z" fill="#002060"/>
<path d="M53.062 29.1526C52.7874 28.9375 52.4135 28.847 52.0652 28.904C51.9391 28.9247 51.8535 29.0437 51.8742 29.1698C51.8949 29.2959 52.0139 29.3812 52.14 29.3605C52.3662 29.3235 52.6081 29.3851 52.7763 29.5169C52.9437 29.6481 53.0353 29.8448 53.0291 30.0307C53.0248 30.1584 53.125 30.2656 53.2527 30.2699C53.3804 30.2742 53.4873 30.174 53.4916 30.0464C53.5032 29.7025 53.3371 29.3684 53.062 29.1526Z" fill="#002060"/>
<path d="M50.9667 29.32C50.8642 29.258 50.7326 29.2848 50.6621 29.3785L50.6488 29.3981L50.5434 29.5677C50.3285 29.9044 50.0884 30.228 49.825 30.5356L49.6916 30.688L49.6765 30.7064C49.6075 30.8012 49.62 30.9347 49.709 31.0147C49.7983 31.0947 49.9326 31.0928 50.0194 31.0138L50.036 30.9969L50.1767 30.8366C50.4539 30.5128 50.7069 30.1718 50.9336 29.8166L51.0447 29.6379L51.0559 29.6168C51.1061 29.5109 51.0691 29.3821 50.9667 29.32Z" fill="#002060"/>
<path d="M47.4835 29.853C47.4458 29.742 47.3294 29.6755 47.2126 29.7024C47.0881 29.7311 47.0105 29.8551 47.0391 29.9796L47.0749 30.1218C47.2698 30.8282 47.6912 31.4785 48.2708 31.9722L48.2895 31.9867C48.386 32.0534 48.5194 32.0375 48.5972 31.9463C48.68 31.849 48.6682 31.7029 48.5709 31.62L48.4703 31.5308C47.9772 31.0766 47.6325 30.4936 47.4901 29.8759L47.4835 29.853Z" fill="#002060"/>
<path d="M43.8748 54.0963C45.177 51.6585 46.1956 49.0956 46.9062 46.4642" stroke="#002060" stroke-width="1.57442" stroke-miterlimit="10" stroke-linecap="round" stroke-linejoin="round"/>
</svg>
