<svg width="433" height="150" viewBox="0 0 433 150" fill="none" xmlns="http://www.w3.org/2000/svg">
<path d="M409.6 10.8977C409.319 10.499 409.373 9.96249 409.759 9.61625C410.203 9.21891 410.916 9.22362 411.354 9.62634C414.007 12.0709 416.457 15.8573 416.56 16.0167C416.874 16.5048 416.694 17.1321 416.156 17.4178C415.619 17.7035 414.932 17.5375 414.613 17.0514C414.59 17.0137 412.199 13.3241 409.748 11.0651C409.691 11.0127 409.642 10.9568 409.6 10.8977Z" fill="#FF9843"/>
<path d="M407.758 11.3215C407.477 10.9228 407.531 10.3863 407.917 10.0401C408.361 9.64272 409.074 9.64743 409.512 10.0501C412.165 12.4947 414.615 16.2805 414.718 16.4398C415.032 16.9279 414.852 17.5552 414.314 17.8409C413.777 18.1267 413.096 17.9593 412.771 17.4745C412.748 17.4369 410.359 13.7479 407.905 11.4882C407.849 11.4365 407.8 11.3807 407.758 11.3215Z" fill="#FF9843"/>
<path d="M405.908 11.7466C405.627 11.3479 405.681 10.8107 406.067 10.4651C406.51 10.0685 407.224 10.0725 407.661 10.4759C410.314 12.9204 412.765 16.7062 412.868 16.8656C413.181 17.3537 413.002 17.9809 412.463 18.2667C411.926 18.5524 411.245 18.3769 410.921 17.9003C410.897 17.8626 408.507 14.1736 406.054 11.914C405.999 11.8615 405.95 11.8057 405.908 11.7466Z" fill="#FF9843"/>
<path d="M404.07 12.1701C403.789 11.7714 403.842 11.2342 404.229 10.8887C404.672 10.492 405.387 10.496 405.823 10.8994C408.476 13.3446 410.927 17.1298 411.03 17.2891C411.344 17.7772 411.164 18.4045 410.626 18.6902C410.088 18.976 409.398 18.8079 409.083 18.3238C409.06 18.2862 406.669 14.5972 404.216 12.3375C404.161 12.2851 404.112 12.2293 404.07 12.1701Z" fill="#FF9843"/>
<path d="M416.184 15.4548C417.381 17.2559 420.479 18.7612 419.664 22.1127C418.634 26.3422 409.399 25.2356 409.399 25.2356C408.788 23.0735 407.381 21.3201 407.097 21.1016C406.813 20.8831 407.649 20.5187 407.649 20.5187L408.076 19.1962C409.138 19.5747 409.273 18.6442 408.923 18.0822C408.572 17.5195 416.184 15.4548 416.184 15.4548Z" fill="#FF9843"/>
<path d="M406.615 11.3438C406.523 11.2549 406.376 11.2574 406.288 11.3492C406.199 11.441 406.201 11.5875 406.293 11.6764C407.484 12.8304 408.611 14.1679 409.44 15.2197C409.854 15.745 410.194 16.1979 410.43 16.5193C410.548 16.6799 410.64 16.8076 410.702 16.895C410.733 16.9387 410.757 16.9725 410.773 16.9951C410.781 17.0063 410.787 17.015 410.791 17.0207C410.793 17.0235 410.794 17.0256 410.795 17.027C410.796 17.0277 410.796 17.0282 410.796 17.0285V17.0288H410.797L410.811 17.0475C410.888 17.1365 411.02 17.1551 411.119 17.0867C411.224 17.0136 411.249 16.8694 411.176 16.7645V16.7642L411.176 16.7639C411.176 16.7636 411.175 16.7629 411.175 16.7621C411.174 16.7606 411.172 16.7582 411.17 16.7552C411.166 16.7492 411.159 16.7403 411.151 16.7287C411.135 16.7054 411.11 16.6707 411.079 16.6262C411.015 16.5373 410.922 16.408 410.803 16.2457C410.565 15.9208 410.222 15.4634 409.804 14.9331C408.968 13.8736 407.827 12.518 406.615 11.3438Z" fill="#002060"/>
<path d="M408.301 10.8302C408.209 10.7413 408.062 10.7438 407.973 10.8356C407.884 10.9274 407.887 11.074 407.978 11.1629C409.17 12.3168 410.296 13.6543 411.126 14.7061C411.54 15.2314 411.88 15.6844 412.115 16.0057C412.233 16.1663 412.325 16.294 412.388 16.3814C412.419 16.4251 412.443 16.4589 412.459 16.4815C412.467 16.4927 412.472 16.5014 412.476 16.5071C412.478 16.5099 412.48 16.512 412.481 16.5134C412.481 16.5141 412.482 16.5146 412.482 16.5149V16.5152H412.482L412.497 16.5339C412.573 16.6229 412.706 16.6415 412.805 16.5731C412.909 16.5 412.935 16.3558 412.862 16.251V16.2507L412.862 16.2504C412.862 16.25 412.861 16.2493 412.861 16.2485C412.859 16.247 412.858 16.2446 412.856 16.2416C412.852 16.2356 412.845 16.2267 412.837 16.2151C412.821 16.1918 412.796 16.1571 412.764 16.1126C412.701 16.0237 412.608 15.8944 412.489 15.7321C412.25 15.4072 411.908 14.9498 411.489 14.4195C410.654 13.36 409.513 12.0044 408.301 10.8302Z" fill="#002060"/>
<path d="M410.181 10.3858C410.089 10.2969 409.942 10.2994 409.853 10.3912C409.765 10.483 409.767 10.6295 409.859 10.7184C411.05 11.8724 412.176 13.2099 413.006 14.2617C413.42 14.787 413.76 15.2399 413.996 15.5613C414.113 15.7219 414.206 15.8496 414.268 15.937C414.299 15.9807 414.323 16.0145 414.339 16.0371C414.347 16.0483 414.353 16.057 414.357 16.0627C414.358 16.0655 414.36 16.0676 414.361 16.069C414.362 16.0697 414.362 16.0702 414.362 16.0705V16.0708H414.363L414.377 16.0895C414.453 16.1785 414.586 16.1971 414.685 16.1287C414.789 16.0556 414.815 15.9114 414.742 15.8065V15.8062L414.742 15.8059C414.742 15.8056 414.741 15.8049 414.741 15.8041C414.74 15.8026 414.738 15.8002 414.736 15.7972C414.732 15.7912 414.725 15.7823 414.717 15.7707C414.701 15.7474 414.676 15.7127 414.645 15.6682C414.581 15.5793 414.488 15.45 414.369 15.2877C414.13 14.9628 413.788 14.5054 413.369 13.9751C412.534 12.9156 411.393 11.56 410.181 10.3858Z" fill="#002060"/>
<path d="M415.041 19.9877C414.29 19.2881 413.236 18.8083 412.06 19.1364L411.947 19.1708L411.924 19.1792C411.817 19.2263 411.76 19.3478 411.797 19.4619C411.834 19.5759 411.951 19.6417 412.065 19.6173L412.088 19.6113L412.183 19.583C413.156 19.311 414.049 19.6963 414.726 20.3263C415.074 20.6509 415.357 21.0345 415.554 21.4102C415.751 21.7891 415.852 22.1438 415.855 22.4106L415.856 22.4344C415.869 22.5509 415.969 22.6411 416.088 22.6399C416.216 22.6386 416.319 22.5338 416.317 22.4061L416.315 22.3371C416.297 21.9881 416.168 21.5876 415.964 21.1963C415.744 20.7756 415.429 20.3493 415.041 19.9877Z" fill="#002060"/>
<rect width="33.0118" height="18.5408" transform="matrix(0.995992 0.0894464 -0.0894369 0.995993 399.756 0)" fill="#FFDBE1"/>
<rect width="4.53204" height="18.5408" transform="matrix(0.995992 0.0894464 -0.0894369 0.995993 422.271 2.02268)" fill="#FF4664"/>
<path d="M408.213 6.7381C407.797 6.70073 407.481 6.49014 407.266 6.10634C407.054 5.72292 406.979 5.19281 407.04 4.51601C407.101 3.8392 407.269 3.33729 407.544 3.01027C407.823 2.68363 408.171 2.539 408.587 2.57637C409.003 2.61375 409.317 2.81784 409.53 3.18865C409.747 3.55983 409.824 4.08383 409.764 4.76063C409.703 5.43744 409.532 5.94547 409.252 6.28472C408.976 6.62435 408.629 6.77547 408.213 6.7381ZM408.264 6.17059C408.394 6.18229 408.514 6.14433 408.624 6.05671C408.734 5.96488 408.826 5.81002 408.901 5.59212C408.98 5.37461 409.036 5.07668 409.07 4.69834C409.104 4.32 409.101 4.0189 409.062 3.79501C409.027 3.57151 408.963 3.41109 408.87 3.31375C408.778 3.21221 408.666 3.15558 408.536 3.14388C408.41 3.13256 408.292 3.1686 408.183 3.25203C408.074 3.33125 407.981 3.47751 407.902 3.69082C407.824 3.90413 407.767 4.19996 407.733 4.5783C407.699 4.95663 407.702 5.25985 407.741 5.48793C407.78 5.71602 407.845 5.88503 407.937 5.99498C408.029 6.10073 408.138 6.15927 408.264 6.17059Z" fill="#FF4664"/>
<path d="M404.973 6.4479C404.557 6.41053 404.241 6.19994 404.025 5.81614C403.814 5.43272 403.739 4.90261 403.799 4.22581C403.86 3.549 404.028 3.04709 404.303 2.72007C404.582 2.39343 404.93 2.2488 405.346 2.28617C405.763 2.32355 406.077 2.52764 406.289 2.89845C406.506 3.26963 406.584 3.79363 406.523 4.47043C406.462 5.14724 406.292 5.65527 406.011 5.99452C405.735 6.33415 405.389 6.48527 404.973 6.4479ZM405.024 5.88039C405.154 5.89209 405.274 5.85413 405.383 5.76651C405.493 5.67468 405.586 5.51982 405.66 5.30192C405.739 5.08441 405.796 4.78648 405.83 4.40814C405.864 4.02981 405.861 3.7287 405.822 3.50481C405.787 3.28131 405.723 3.12089 405.63 3.02355C405.537 2.92201 405.426 2.86538 405.295 2.85368C405.169 2.84236 405.052 2.87841 404.942 2.96183C404.834 3.04105 404.74 3.18731 404.662 3.40062C404.583 3.61393 404.527 3.90976 404.493 4.2881C404.459 4.66643 404.461 4.96965 404.5 5.19773C404.539 5.42582 404.604 5.59483 404.696 5.70478C404.788 5.81053 404.898 5.86907 405.024 5.88039Z" fill="#FF4664"/>
<path d="M400.603 5.97858L400.657 5.38585L401.552 5.46626L401.789 2.8305L401.051 2.76425L401.092 2.31024C401.293 2.29015 401.469 2.26149 401.621 2.22426C401.773 2.18282 401.915 2.12993 402.048 2.06559L402.59 2.11429L402.283 5.53195L403.072 5.60273L403.018 6.19546L400.603 5.97858Z" fill="#FF4664"/>
<path d="M424.84 14.5955C424.813 14.8927 424.663 15.1184 424.389 15.2723C424.115 15.4233 423.736 15.4771 423.253 15.4337C422.769 15.3902 422.411 15.2703 422.177 15.0737C421.944 14.8742 421.841 14.6258 421.867 14.3285C421.894 14.0313 422.04 13.8067 422.305 13.655C422.57 13.5002 422.944 13.4445 423.428 13.4879C423.911 13.5313 424.274 13.6532 424.516 13.8536C424.759 14.0509 424.867 14.2982 424.84 14.5955ZM424.435 14.5591C424.443 14.466 424.416 14.3803 424.353 14.3021C424.288 14.2235 424.177 14.1576 424.021 14.1043C423.866 14.0479 423.653 14.0076 423.383 13.9834C423.113 13.9591 422.898 13.961 422.738 13.989C422.578 14.014 422.464 14.0597 422.394 14.1261C422.322 14.1922 422.281 14.2718 422.273 14.3649C422.265 14.455 422.29 14.5391 422.35 14.617C422.407 14.6948 422.511 14.7617 422.663 14.8177C422.816 14.8738 423.027 14.914 423.297 14.9382C423.568 14.9625 423.784 14.9607 423.947 14.933C424.11 14.9053 424.231 14.8586 424.309 14.793C424.385 14.7271 424.427 14.6492 424.435 14.5591Z" fill="white"/>
<path d="M424.629 16.9047C424.602 17.2019 424.452 17.4276 424.177 17.5815C423.904 17.7325 423.525 17.7863 423.042 17.7428C422.558 17.6994 422.2 17.5795 421.966 17.3829C421.733 17.1834 421.629 16.935 421.656 16.6377C421.683 16.3404 421.829 16.1159 422.093 15.9642C422.359 15.8094 422.733 15.7537 423.216 15.7971C423.7 15.8405 424.063 15.9624 424.305 16.1628C424.547 16.3601 424.655 16.6074 424.629 16.9047ZM424.223 16.8683C424.232 16.7752 424.205 16.6895 424.142 16.6112C424.076 16.5327 423.966 16.4668 423.81 16.4134C423.655 16.3571 423.442 16.3168 423.172 16.2926C422.902 16.2683 422.687 16.2702 422.527 16.2982C422.367 16.3232 422.252 16.3689 422.183 16.4353C422.11 16.5014 422.07 16.581 422.062 16.6741C422.053 16.7642 422.079 16.8482 422.139 16.9262C422.195 17.004 422.3 17.0709 422.452 17.1269C422.605 17.183 422.816 17.2231 423.086 17.2474C423.356 17.2717 423.573 17.2699 423.736 17.2422C423.899 17.2144 424.019 17.1678 424.098 17.1022C424.173 17.0363 424.215 16.9583 424.223 16.8683Z" fill="white"/>
<path d="M424.294 20.0291L423.871 19.9911L423.928 19.3516L422.045 19.1825L421.998 19.7095L421.674 19.6803C421.659 19.5368 421.639 19.4108 421.612 19.3025C421.583 19.1939 421.545 19.0921 421.499 18.9972L421.534 18.6099L423.975 18.8291L424.025 18.2661L424.449 18.3041L424.294 20.0291Z" fill="white"/>
<rect width="7.26156" height="1.39056" transform="matrix(0.995992 0.0894464 -0.0894369 0.995993 404.712 10.4253)" fill="#FFECEF"/>
<rect width="4.06853" height="1.33906" transform="matrix(0.995992 0.0894464 -0.0894369 0.995993 414.024 8.10684)" fill="#FF4664"/>
<rect width="7.26156" height="1.33906" transform="matrix(0.995992 0.0894464 -0.0894369 0.995993 410.357 13.2074)" fill="#FFA5B3"/>
<rect width="7.21006" height="1.39056" transform="matrix(0.995992 0.0894459 -0.0894374 0.995992 400.8 13.6935)" fill="#FFA5B3"/>
<rect width="10.4031" height="1.39056" transform="matrix(0.995992 0.0894464 -0.0894369 0.995993 405.574 16.3972)" fill="#FF4664"/>
<path d="M403.638 19.438C403.487 19.2235 403.422 18.9579 403.481 18.689C403.601 18.135 404.19 17.7733 404.799 17.8809C404.937 17.9051 408.184 18.5021 409.599 20.6985C409.912 21.1873 409.729 21.8146 409.191 22.099C408.653 22.3834 407.96 22.2166 407.649 21.7285C406.771 20.3415 404.392 19.8958 404.368 19.8911C404.054 19.8346 403.798 19.6645 403.638 19.438Z" fill="#FF9843"/>
<path d="M353.933 73.1152C358.554 68.3425 368.587 57.626 370.214 54.6994C382.827 64.4487 396.395 63.295 405.513 58.5007C405.63 58.4382 405.743 58.3783 405.86 58.3158C406.111 58.18 406.359 58.0415 406.602 57.8976C407.086 57.6206 407.558 57.3329 408.022 57.0317C419.783 49.4244 424.568 35.412 419.666 22.1143L409.4 25.2366C413.514 36.3788 407.75 45.6911 400.575 49.7256C400.489 49.7774 400.399 49.8258 400.31 49.8749C400.106 49.9838 399.903 50.092 399.7 50.1895C399.32 50.3825 398.94 50.5586 398.551 50.722C390.689 54.0721 381.795 51.9194 374.409 44.7707C373.655 44.0486 372.897 43.3373 372.143 42.6475C368.442 39.2321 357.422 30.23 353.933 27.4467" fill="#002060"/>
<path d="M400.575 49.7256C403.057 52.1634 405.537 54.5965 408.022 57.0317C419.783 49.4244 424.568 35.412 419.666 22.1143L409.4 25.2366C413.514 36.3788 407.75 45.6911 400.575 49.7256Z" fill="#FF9843"/>
<path d="M367.668 39.035C367.631 39.0894 367.593 39.1432 367.556 39.1963C364.444 43.6282 357.048 42.6339 355.311 37.6191C353.488 32.3542 355.812 28.8843 355.812 28.8843L367.668 39.035Z" fill="#FF9843"/>
<path d="M373.063 14.3051C373.569 14.3629 374.03 14.777 374.093 15.2362C374.259 14.416 375.194 13.7894 376.106 13.8875C377.018 13.9857 377.766 14.7938 377.716 15.6262C378.442 15.1838 379.404 15.0016 380.207 15.3155C381.009 15.6295 381.543 16.5156 381.237 17.2592C382.209 16.7052 383.557 16.7604 384.47 17.3923C385.383 18.0243 385.799 19.1901 385.468 20.1885C386.264 20.0816 387.09 20.5374 387.419 21.2037C387.749 21.8706 387.604 22.6922 387.119 23.2758C386.635 23.86 385.848 24.2083 385.047 24.2701C385.667 24.6795 385.794 25.5307 385.457 26.1559C385.119 26.7812 384.415 27.1906 383.678 27.3809C382.941 27.5712 382.162 27.5705 381.396 27.5685L366.955 23.2549C366.743 22.0589 367.018 20.7969 367.714 19.7636C367.886 19.5088 368.088 19.262 368.36 19.0946C368.633 18.9272 368.987 18.8479 369.298 18.9467C369.036 18.4519 368.861 17.9046 368.913 17.3574C368.966 16.8108 369.272 16.2655 369.795 15.9899C370.317 15.7142 371.057 15.7687 371.454 16.1828C371.354 15.729 371.44 15.2335 371.739 14.8584C372.038 14.4832 372.557 14.2472 373.063 14.3051Z" fill="#002060"/>
<path d="M382.18 27.0241C379.558 30.5282 376.115 35.2754 372.753 34.784C371.681 34.6273 370.546 33.6531 370.546 33.6531L364.838 38.4958L357.298 31.1158L370.221 20.3669L376.441 19.3698C376.441 19.3691 384.542 23.8347 382.18 27.0241Z" fill="#FF9843"/>
<path d="M382.986 26.5277C382.91 26.7664 382.627 26.919 382.353 26.915C382.079 26.9109 381.824 26.7758 381.634 26.5976C381.444 26.4188 381.309 26.1989 381.178 25.9811C380.815 25.3794 380.451 24.7582 380.344 24.0785C380.191 24.2835 379.872 24.3514 379.612 24.2755C379.352 24.2002 379.15 24.0059 379.021 23.7874C378.892 23.5688 378.828 23.3241 378.764 23.0834C378.583 23.2811 378.241 23.306 377.985 23.1984C377.728 23.0908 377.541 22.8797 377.393 22.6606C377.053 22.1577 376.864 21.5721 376.849 20.9818C376.572 21.2198 376.182 21.324 375.801 21.3025C375.421 21.281 375.054 21.1102 374.812 20.8433C374.748 21.0833 374.676 21.3045 374.544 21.5203C374.413 21.7361 374.21 21.9264 373.952 22.0037C373.694 22.081 373.379 22.0245 373.211 21.8302C373.184 22.1731 373.033 22.5207 372.737 22.7345C372.441 22.9483 371.987 22.9954 371.683 22.7903C371.683 22.5315 371.616 22.2726 371.552 22.0205C371.487 21.7684 371.352 21.5223 371.127 21.3643C370.902 21.2057 370.577 21.1512 370.325 21.2709C370.09 21.3825 369.958 21.6151 369.873 21.843C369.696 22.3197 369.662 22.8401 369.776 23.3322C368.753 23.743 367.564 23.8546 366.492 23.5662C367.85 21.9244 369.2 20.2409 370.967 18.9601C371.899 18.2858 372.943 17.719 374.091 17.4313C375.24 17.1435 376.5 17.1509 377.591 17.5826C378.889 18.0955 379.826 19.1356 380.71 20.1394C381.611 21.162 382.519 22.1946 383.164 23.3665C383.443 23.8748 383.673 24.4166 383.716 24.9834C383.76 25.5488 383.158 25.9811 382.986 26.5277Z" fill="#002060"/>
<path d="M370.512 33.5549C368.374 31.7632 368.003 29.3214 368.003 29.3214C368.003 29.3214 366.446 32.5169 369.095 34.8834L370.512 33.5549Z" fill="#002060"/>
<path d="M376.762 26.5825C376.635 26.568 376.521 26.6593 376.506 26.7862C376.492 26.9131 376.583 27.0278 376.71 27.0424C376.954 27.0703 377.181 27.1916 377.323 27.3618L377.324 27.3621C377.466 27.5311 377.526 27.7505 377.494 27.9536C377.474 28.0798 377.561 28.1982 377.687 28.2181C377.813 28.238 377.931 28.1521 377.951 28.0259C378.005 27.6857 377.903 27.3323 377.678 27.0644C377.455 26.7977 377.117 26.6231 376.762 26.5825Z" fill="#002060"/>
<path d="M380.066 29.1526C379.791 28.9375 379.417 28.847 379.069 28.904C378.943 28.9247 378.857 29.0437 378.878 29.1698C378.899 29.2958 379.018 29.3811 379.144 29.3605C379.37 29.3235 379.612 29.3851 379.78 29.5169C379.948 29.6481 380.039 29.8448 380.033 30.0307C380.029 30.1584 380.129 30.2656 380.257 30.2699C380.384 30.2742 380.491 30.174 380.496 30.0463C380.507 29.7025 380.341 29.3683 380.066 29.1526Z" fill="#002060"/>
<path d="M377.968 29.32C377.866 29.258 377.734 29.2848 377.663 29.3785L377.65 29.3981L377.545 29.5677C377.33 29.9044 377.09 30.228 376.826 30.5356L376.693 30.688L376.678 30.7064C376.609 30.8012 376.621 30.9347 376.71 31.0147C376.8 31.0947 376.934 31.0928 377.021 31.0138L377.037 30.9969L377.178 30.8366C377.455 30.5128 377.708 30.1718 377.935 29.8166L378.046 29.6379L378.057 29.6168C378.107 29.5109 378.07 29.3821 377.968 29.32Z" fill="#002060"/>
<path d="M374.486 29.853C374.448 29.742 374.331 29.6754 374.215 29.7023C374.09 29.731 374.013 29.8551 374.041 29.9796L374.077 30.1218C374.272 30.8282 374.693 31.4785 375.273 31.9722L375.292 31.9867C375.388 32.0534 375.521 32.0375 375.599 31.9463C375.682 31.849 375.67 31.7028 375.573 31.62L375.472 31.5308C374.979 31.0766 374.635 30.4936 374.492 29.8759L374.486 29.853Z" fill="#002060"/>
<path d="M370.875 54.0963C372.178 51.6585 373.196 49.0956 373.907 46.4642" stroke="#002060" stroke-width="1.57442" stroke-miterlimit="10" stroke-linecap="round" stroke-linejoin="round"/>
<path d="M0 28.7563C0 24.0765 3.79349 20.2828 8.47299 20.2828H345.504C350.183 20.2828 353.977 24.0765 353.977 28.7563V81.4984C353.977 86.1782 350.183 89.9718 345.504 89.9718H0V28.7563Z" fill="#CCE9F2"/>
<path d="M0 78.0495H390.316C394.995 78.0495 398.789 81.8432 398.789 86.523V141.526C398.789 146.206 394.995 150 390.316 150H8.47298C3.79348 150 0 146.206 0 141.526V78.0495Z" fill="#CCE9F2"/>
<path d="M15.5329 74.4734V36.9442H26.1234C29.9605 36.9442 33.2797 37.5965 36.0808 38.9012C38.8819 40.2059 41.0499 42.2397 42.5847 45.0026C44.158 47.7271 44.9446 51.2383 44.9446 55.5361C44.9446 59.834 44.1772 63.3835 42.6423 66.1848C41.1074 68.986 38.9586 71.0774 36.1959 72.4588C33.4715 73.8019 30.2675 74.4734 26.5839 74.4734H15.5329ZM23.9938 67.6238H25.6054C27.7542 67.6238 29.6152 67.24 31.1884 66.4726C32.8 65.7051 34.0471 64.4388 34.9296 62.6736C35.8122 60.9084 36.2535 58.5293 36.2535 55.5361C36.2535 52.543 35.8122 50.2022 34.9296 48.5138C34.0471 46.787 32.8 45.5782 31.1884 44.8875C29.6152 44.1584 27.7542 43.7938 25.6054 43.7938H23.9938V67.6238Z" fill="#002060"/>
<path d="M51.3775 74.4734V45.9236H59.8384V74.4734H51.3775ZM55.5792 41.7217C54.1594 41.7217 53.0083 41.3187 52.1257 40.5129C51.2432 39.7071 50.8019 38.6326 50.8019 37.2895C50.8019 35.9465 51.2432 34.872 52.1257 34.0662C53.0083 33.2603 54.1594 32.8574 55.5792 32.8574C56.9989 32.8574 58.1501 33.2603 59.0326 34.0662C59.9151 34.872 60.3564 35.9465 60.3564 37.2895C60.3564 38.6326 59.9151 39.7071 59.0326 40.5129C58.1501 41.3187 56.9989 41.7217 55.5792 41.7217Z" fill="#002060"/>
<path d="M67.2844 74.4734V45.9236H74.1913L74.7668 49.5499H74.9971C76.2249 48.3986 77.568 47.4009 79.0261 46.5567C80.5226 45.6741 82.2301 45.2328 84.1487 45.2328C87.2567 45.2328 89.5015 46.2689 90.8828 48.3411C92.3026 50.3749 93.0125 53.1762 93.0125 56.7449V74.4734H84.5516V57.8385C84.5516 55.7664 84.2638 54.3465 83.6882 53.5791C83.151 52.8116 82.2685 52.4279 81.0406 52.4279C79.9662 52.4279 79.0453 52.6773 78.2778 53.1762C77.5104 53.6366 76.6662 54.3082 75.7453 55.1908V74.4734H67.2844Z" fill="#002060"/>
<path d="M120.321 75.1642C117.213 75.1642 114.949 74.1473 113.529 72.1135C112.148 70.0413 111.457 67.2209 111.457 63.6521V45.9236H119.918V62.5585C119.918 64.5923 120.206 66.0121 120.782 66.8179C121.357 67.5854 122.259 67.9691 123.487 67.9691C124.561 67.9691 125.463 67.7197 126.192 67.2209C126.921 66.722 127.708 65.9162 128.552 64.8033V45.9236H137.013V74.4734H130.106L129.473 70.5018H129.3C128.11 71.9216 126.806 73.0536 125.386 73.8978C123.966 74.7421 122.278 75.1642 120.321 75.1642Z" fill="#002060"/>
<path d="M144.458 74.4734V45.9236H151.365L151.941 49.5499H152.171C153.399 48.3986 154.742 47.4009 156.2 46.5567C157.696 45.6741 159.404 45.2328 161.322 45.2328C164.431 45.2328 166.675 46.2689 168.057 48.3411C169.476 50.3749 170.186 53.1762 170.186 56.7449V74.4734H161.725V57.8385C161.725 55.7664 161.438 54.3465 160.862 53.5791C160.325 52.8116 159.442 52.4279 158.214 52.4279C157.14 52.4279 156.219 52.6773 155.452 53.1762C154.684 53.6366 153.84 54.3082 152.919 55.1908V74.4734H144.458Z" fill="#002060"/>
<path d="M187.584 86.6187C185.358 86.6187 183.344 86.3692 181.54 85.8704C179.737 85.3715 178.298 84.5849 177.224 83.5104C176.149 82.4359 175.612 81.0545 175.612 79.3661C175.612 77.0637 176.974 75.145 179.698 73.61V73.3798C178.969 72.8809 178.336 72.2478 177.799 71.4803C177.3 70.7128 177.051 69.7343 177.051 68.5447C177.051 67.5087 177.358 66.5109 177.972 65.5516C178.586 64.5923 179.353 63.8056 180.274 63.1916V62.9614C179.276 62.2707 178.375 61.273 177.569 59.9683C176.801 58.6636 176.418 57.1862 176.418 55.5361C176.418 53.2337 176.974 51.3342 178.087 49.8377C179.2 48.3027 180.658 47.1515 182.461 46.384C184.265 45.6166 186.183 45.2328 188.217 45.2328C189.905 45.2328 191.383 45.4631 192.649 45.9236H203.067V52.0825H198.52C198.788 52.5046 198.999 53.0418 199.153 53.6942C199.345 54.3465 199.441 55.0565 199.441 55.8239C199.441 58.0112 198.942 59.8148 197.944 61.2346C196.946 62.6544 195.603 63.7097 193.915 64.4004C192.227 65.0911 190.327 65.4365 188.217 65.4365C187.104 65.4365 185.953 65.2446 184.764 64.8609C184.073 65.4365 183.727 66.1464 183.727 66.9906C183.727 67.7197 184.054 68.2569 184.706 68.6023C185.358 68.9477 186.471 69.1203 188.044 69.1203H192.649C196.179 69.1203 198.865 69.6959 200.707 70.8471C202.587 71.96 203.527 73.8019 203.527 76.3729C203.527 78.33 202.875 80.076 201.57 81.6109C200.266 83.1842 198.424 84.4122 196.045 85.2948C193.666 86.1774 190.845 86.6187 187.584 86.6187ZM188.217 60.3136C189.33 60.3136 190.251 59.9107 190.98 59.1049C191.747 58.299 192.131 57.1094 192.131 55.5361C192.131 54.0396 191.747 52.9075 190.98 52.1401C190.251 51.3342 189.33 50.9313 188.217 50.9313C187.104 50.9313 186.164 51.315 185.397 52.0825C184.668 52.85 184.303 54.0012 184.303 55.5361C184.303 57.1094 184.668 58.299 185.397 59.1049C186.164 59.9107 187.104 60.3136 188.217 60.3136ZM188.908 81.3231C190.826 81.3231 192.399 80.9777 193.627 80.287C194.855 79.5963 195.469 78.7713 195.469 77.8119C195.469 76.9293 195.085 76.3346 194.318 76.0276C193.589 75.7206 192.515 75.5671 191.095 75.5671H188.159C187.2 75.5671 186.394 75.5287 185.742 75.452C185.128 75.4136 184.591 75.3368 184.13 75.2217C183.094 76.1427 182.576 77.0828 182.576 78.0422C182.576 79.1166 183.152 79.9225 184.303 80.4597C185.493 81.0353 187.027 81.3231 188.908 81.3231Z" fill="#002060"/>
<path d="M217.318 75.1642C213.788 75.1642 210.948 73.8403 208.799 71.1925C206.689 68.5064 205.634 64.8417 205.634 60.1985C205.634 57.0902 206.19 54.4233 207.303 52.1976C208.454 49.9336 209.931 48.2068 211.735 47.0172C213.577 45.8276 215.495 45.2328 217.491 45.2328C219.064 45.2328 220.388 45.5015 221.462 46.0387C222.536 46.5759 223.553 47.305 224.513 48.226L224.167 43.8514V34.1237H232.628V74.4734H225.721L225.146 71.653H224.915C223.918 72.6507 222.747 73.4949 221.404 74.1856C220.061 74.838 218.699 75.1642 217.318 75.1642ZM219.505 68.2569C220.426 68.2569 221.251 68.0651 221.98 67.6813C222.747 67.2976 223.477 66.6261 224.167 65.6667V53.982C223.438 53.2913 222.652 52.8116 221.807 52.543C221.002 52.2744 220.215 52.1401 219.448 52.1401C218.105 52.1401 216.915 52.7924 215.879 54.0971C214.843 55.3634 214.325 57.3589 214.325 60.0834C214.325 62.8846 214.766 64.9568 215.649 66.2999C216.57 67.6046 217.855 68.2569 219.505 68.2569Z" fill="#002060"/>
<path d="M252.384 75.1642C249.967 75.1642 247.684 74.5886 245.535 73.4374C243.424 72.2478 241.717 70.5402 240.412 68.3145C239.108 66.0505 238.455 63.3451 238.455 60.1985C238.455 57.0135 239.108 54.3082 240.412 52.0825C241.717 49.8568 243.424 48.1684 245.535 47.0172C247.684 45.8276 249.967 45.2328 252.384 45.2328C254.802 45.2328 257.066 45.8276 259.176 47.0172C261.286 48.1684 262.994 49.8568 264.299 52.0825C265.603 54.3082 266.255 57.0135 266.255 60.1985C266.255 63.3451 265.603 66.0505 264.299 68.3145C262.994 70.5402 261.286 72.2478 259.176 73.4374C257.066 74.5886 254.802 75.1642 252.384 75.1642ZM252.384 68.3145C254.111 68.3145 255.416 67.5854 256.298 66.1272C257.181 64.6306 257.622 62.6544 257.622 60.1985C257.622 57.7042 257.181 55.728 256.298 54.2698C255.416 52.8116 254.111 52.0825 252.384 52.0825C250.619 52.0825 249.295 52.8116 248.413 54.2698C247.569 55.728 247.146 57.7042 247.146 60.1985C247.146 62.6544 247.569 64.6306 248.413 66.1272C249.295 67.5854 250.619 68.3145 252.384 68.3145Z" fill="#002060"/>
<path d="M272.051 74.4734V45.9236H278.958L279.533 49.6074H279.763C280.953 48.4178 282.219 47.4009 283.562 46.5567C284.905 45.6741 286.517 45.2328 288.397 45.2328C290.431 45.2328 292.061 45.6549 293.289 46.4992C294.556 47.305 295.553 48.4754 296.282 50.0103C297.549 48.7056 298.892 47.5928 300.311 46.6718C301.731 45.7125 303.381 45.2328 305.261 45.2328C308.331 45.2328 310.576 46.2689 311.995 48.3411C313.454 50.3749 314.183 53.1762 314.183 56.7449V74.4734H305.722V57.8385C305.722 55.7664 305.434 54.3465 304.858 53.5791C304.321 52.8116 303.439 52.4279 302.211 52.4279C300.791 52.4279 299.16 53.3488 297.318 55.1908V74.4734H288.857V57.8385C288.857 55.7664 288.57 54.3465 287.994 53.5791C287.457 52.8116 286.574 52.4279 285.346 52.4279C283.927 52.4279 282.315 53.3488 280.512 55.1908V74.4734H272.051Z" fill="#002060"/>
<path d="M329.805 75.1642C327.925 75.1642 325.987 74.7996 323.992 74.0705C322.035 73.3414 320.327 72.3821 318.869 71.1925L322.668 65.897C323.972 66.8563 325.219 67.6046 326.409 68.1418C327.637 68.6407 328.846 68.8901 330.035 68.8901C331.301 68.8901 332.222 68.679 332.798 68.2569C333.373 67.7965 333.661 67.2017 333.661 66.4726C333.661 65.8202 333.373 65.283 332.798 64.8609C332.261 64.4388 331.551 64.055 330.668 63.7097C329.786 63.3259 328.846 62.9422 327.848 62.5585C326.697 62.098 325.546 61.5224 324.394 60.8317C323.282 60.1409 322.342 59.2583 321.574 58.1839C320.807 57.0711 320.423 55.728 320.423 54.1547C320.423 51.5069 321.421 49.358 323.416 47.7079C325.45 46.0579 328.097 45.2328 331.359 45.2328C333.546 45.2328 335.465 45.6166 337.115 46.384C338.803 47.1131 340.242 47.9382 341.431 48.8591L337.633 53.9244C336.635 53.157 335.637 52.5622 334.64 52.1401C333.642 51.718 332.644 51.5069 331.647 51.5069C329.459 51.5069 328.366 52.2552 328.366 53.7518C328.366 54.6727 328.903 55.3826 329.978 55.8815C331.09 56.342 332.376 56.8408 333.834 57.378C335.062 57.8002 336.251 58.3566 337.402 59.0473C338.592 59.6996 339.57 60.5822 340.338 61.6951C341.144 62.7695 341.547 64.1893 341.547 65.9545C341.547 68.5255 340.549 70.7128 338.554 72.5164C336.558 74.2816 333.642 75.1642 329.805 75.1642Z" fill="#002060"/>
<path d="M14.8422 139.747V100.606H21.749L22.3246 103.426H22.5549C23.6676 102.429 24.9147 101.604 26.2961 100.951C27.7158 100.26 29.1739 99.9151 30.6704 99.9151C34.1238 99.9151 36.8482 101.239 38.8435 103.887C40.8388 106.496 41.8365 110.007 41.8365 114.42C41.8365 117.682 41.2609 120.464 40.1098 122.766C38.9586 125.069 37.4622 126.834 35.6203 128.062C33.8169 129.252 31.8791 129.846 29.8071 129.846C28.5792 129.846 27.3897 129.597 26.2385 129.098C25.0874 128.561 24.013 127.813 23.0153 126.853L23.3031 131.401V139.747H14.8422ZM27.8501 122.939C29.3082 122.939 30.5553 122.268 31.5913 120.925C32.6274 119.581 33.1454 117.452 33.1454 114.535C33.1454 109.393 31.4954 106.822 28.1955 106.822C26.5455 106.822 24.9147 107.686 23.3031 109.413V121.097C24.0705 121.788 24.8379 122.268 25.6054 122.536C26.3728 122.805 27.1211 122.939 27.8501 122.939Z" fill="#002060"/>
<path d="M47.8364 129.156V100.606H54.7432L55.3188 105.614H55.549C56.5851 103.695 57.8321 102.275 59.2903 101.354C60.7484 100.395 62.2065 99.9151 63.6646 99.9151C64.4704 99.9151 65.1419 99.9726 65.6791 100.088C66.2163 100.164 66.6768 100.299 67.0605 100.491L65.6791 107.801C65.1803 107.647 64.6814 107.532 64.1826 107.455C63.7222 107.379 63.185 107.34 62.571 107.34C61.4966 107.34 60.3647 107.743 59.1751 108.549C58.024 109.317 57.0647 110.66 56.2973 112.578V129.156H47.8364Z" fill="#002060"/>
<path d="M82.4669 129.846C80.0495 129.846 77.7664 129.271 75.6176 128.12C73.5072 126.93 71.7996 125.222 70.495 122.997C69.1904 120.733 68.5381 118.027 68.5381 114.881C68.5381 111.696 69.1904 108.99 70.495 106.765C71.7996 104.539 73.5072 102.851 75.6176 101.699C77.7664 100.51 80.0495 99.9151 82.4669 99.9151C84.8843 99.9151 87.1482 100.51 89.2586 101.699C91.3691 102.851 93.0766 104.539 94.3812 106.765C95.6859 108.99 96.3382 111.696 96.3382 114.881C96.3382 118.027 95.6859 120.733 94.3812 122.997C93.0766 125.222 91.3691 126.93 89.2586 128.12C87.1482 129.271 84.8843 129.846 82.4669 129.846ZM82.4669 122.997C84.1936 122.997 85.4982 122.268 86.3808 120.809C87.2633 119.313 87.7046 117.337 87.7046 114.881C87.7046 112.386 87.2633 110.41 86.3808 108.952C85.4982 107.494 84.1936 106.765 82.4669 106.765C80.7018 106.765 79.378 107.494 78.4955 108.952C77.6513 110.41 77.2292 112.386 77.2292 114.881C77.2292 117.337 77.6513 119.313 78.4955 120.809C79.378 122.268 80.7018 122.997 82.4669 122.997Z" fill="#002060"/>
<path d="M112.321 141.301C110.096 141.301 108.081 141.051 106.278 140.553C104.474 140.054 103.035 139.267 101.961 138.193C100.886 137.118 100.349 135.737 100.349 134.048C100.349 131.746 101.711 129.827 104.436 128.292V128.062C103.707 127.563 103.074 126.93 102.536 126.163C102.038 125.395 101.788 124.417 101.788 123.227C101.788 122.191 102.095 121.193 102.709 120.234C103.323 119.274 104.09 118.488 105.011 117.874V117.644C104.014 116.953 103.112 115.955 102.306 114.65C101.539 113.346 101.155 111.868 101.155 110.218C101.155 107.916 101.711 106.016 102.824 104.52C103.937 102.985 105.395 101.834 107.198 101.066C109.002 100.299 110.921 99.9151 112.954 99.9151C114.643 99.9151 116.12 100.145 117.386 100.606H127.804V106.765H123.257C123.526 107.187 123.737 107.724 123.89 108.376C124.082 109.029 124.178 109.739 124.178 110.506C124.178 112.693 123.679 114.497 122.681 115.917C121.684 117.337 120.341 118.392 118.652 119.083C116.964 119.773 115.065 120.119 112.954 120.119C111.841 120.119 110.69 119.927 109.501 119.543C108.81 120.119 108.465 120.829 108.465 121.673C108.465 122.402 108.791 122.939 109.443 123.285C110.096 123.63 111.208 123.803 112.782 123.803H117.386C120.916 123.803 123.602 124.378 125.444 125.529C127.324 126.642 128.264 128.484 128.264 131.055C128.264 133.012 127.612 134.758 126.307 136.293C125.003 137.866 123.161 139.094 120.782 139.977C118.403 140.86 115.583 141.301 112.321 141.301ZM112.954 114.996C114.067 114.996 114.988 114.593 115.717 113.787C116.484 112.981 116.868 111.792 116.868 110.218C116.868 108.722 116.484 107.59 115.717 106.822C114.988 106.016 114.067 105.614 112.954 105.614C111.841 105.614 110.901 105.997 110.134 106.765C109.405 107.532 109.04 108.683 109.04 110.218C109.04 111.792 109.405 112.981 110.134 113.787C110.901 114.593 111.841 114.996 112.954 114.996ZM113.645 136.005C115.563 136.005 117.137 135.66 118.365 134.969C119.592 134.279 120.206 133.454 120.206 132.494C120.206 131.612 119.823 131.017 119.055 130.71C118.326 130.403 117.252 130.249 115.832 130.249H112.897C111.937 130.249 111.132 130.211 110.479 130.134C109.865 130.096 109.328 130.019 108.868 129.904C107.832 130.825 107.314 131.765 107.314 132.724C107.314 133.799 107.889 134.605 109.04 135.142C110.23 135.718 111.765 136.005 113.645 136.005Z" fill="#002060"/>
<path d="M132.879 129.156V100.606H139.786L140.362 105.614H140.592C141.628 103.695 142.875 102.275 144.333 101.354C145.791 100.395 147.249 99.9151 148.708 99.9151C149.513 99.9151 150.185 99.9726 150.722 100.088C151.259 100.164 151.72 100.299 152.103 100.491L150.722 107.801C150.223 107.647 149.724 107.532 149.226 107.455C148.765 107.379 148.228 107.34 147.614 107.34C146.54 107.34 145.408 107.743 144.218 108.549C143.067 109.317 142.108 110.66 141.34 112.578V129.156H132.879Z" fill="#002060"/>
<path d="M161.377 129.846C158.768 129.846 156.696 129.021 155.161 127.371C153.626 125.683 152.858 123.63 152.858 121.212C152.858 118.219 154.125 115.878 156.657 114.19C159.19 112.502 163.276 111.37 168.917 110.794C168.84 109.528 168.456 108.53 167.766 107.801C167.113 107.033 166.001 106.65 164.427 106.65C163.238 106.65 162.029 106.88 160.801 107.34C159.573 107.801 158.269 108.434 156.887 109.24L153.837 103.656C155.64 102.544 157.559 101.642 159.593 100.951C161.665 100.26 163.813 99.9151 166.039 99.9151C169.684 99.9151 172.485 100.97 174.442 103.081C176.399 105.191 177.378 108.434 177.378 112.809V129.156H170.471L169.895 126.22H169.665C168.476 127.295 167.19 128.177 165.809 128.868C164.466 129.52 162.988 129.846 161.377 129.846ZM164.255 123.285C165.214 123.285 166.039 123.073 166.73 122.651C167.459 122.191 168.188 121.596 168.917 120.867V115.859C165.924 116.243 163.852 116.857 162.701 117.701C161.55 118.507 160.974 119.466 160.974 120.579C160.974 121.5 161.262 122.191 161.837 122.651C162.451 123.073 163.257 123.285 164.255 123.285Z" fill="#002060"/>
<path d="M184.535 129.156V100.606H191.441L192.017 104.29H192.247C193.437 103.1 194.703 102.083 196.046 101.239C197.389 100.356 199.001 99.9151 200.881 99.9151C202.915 99.9151 204.545 100.337 205.773 101.181C207.039 101.987 208.037 103.158 208.766 104.693C210.032 103.388 211.375 102.275 212.795 101.354C214.215 100.395 215.865 99.9151 217.745 99.9151C220.815 99.9151 223.06 100.951 224.479 103.023C225.937 105.057 226.666 107.858 226.666 111.427V129.156H218.206V112.521C218.206 110.449 217.918 109.029 217.342 108.261C216.805 107.494 215.922 107.11 214.695 107.11C213.275 107.11 211.644 108.031 209.802 109.873V129.156H201.341V112.521C201.341 110.449 201.054 109.029 200.478 108.261C199.941 107.494 199.058 107.11 197.83 107.11C196.411 107.11 194.799 108.031 192.996 109.873V129.156H184.535Z" fill="#002060"/>
<path d="M237.051 140.322C236.207 140.322 235.459 140.265 234.806 140.15C234.192 140.035 233.598 139.9 233.022 139.747L234.519 133.3C234.787 133.338 235.094 133.396 235.439 133.473C235.785 133.588 236.111 133.645 236.418 133.645C237.838 133.645 238.931 133.3 239.699 132.609C240.466 131.919 241.042 131.017 241.425 129.904L241.828 128.407L230.835 100.606H239.353L243.44 112.866C243.862 114.171 244.246 115.495 244.591 116.838C244.936 118.181 245.301 119.562 245.685 120.982H245.915C246.222 119.639 246.529 118.296 246.836 116.953C247.181 115.571 247.526 114.209 247.872 112.866L251.325 100.606H259.441L249.541 129.443C248.658 131.823 247.68 133.818 246.606 135.43C245.531 137.08 244.227 138.308 242.692 139.114C241.195 139.919 239.315 140.322 237.051 140.322Z" fill="#002060"/>
<path d="M274.894 129.846C271.364 129.846 268.831 128.829 267.296 126.796C265.8 124.762 265.052 122.095 265.052 118.795V107.225H261.138V100.951L265.512 100.606L266.491 93.0078H273.513V100.606H280.362V107.225H273.513V118.68C273.513 120.291 273.839 121.462 274.491 122.191C275.182 122.882 276.083 123.227 277.196 123.227C277.657 123.227 278.117 123.169 278.578 123.054C279.076 122.939 279.518 122.805 279.901 122.651L281.225 128.81C280.496 129.041 279.594 129.271 278.52 129.501C277.484 129.731 276.275 129.846 274.894 129.846Z" fill="#002060"/>
<path d="M297.7 129.846C294.976 129.846 292.52 129.252 290.333 128.062C288.146 126.872 286.419 125.165 285.153 122.939C283.886 120.714 283.253 118.027 283.253 114.881C283.253 111.772 283.886 109.106 285.153 106.88C286.457 104.654 288.146 102.947 290.218 101.757C292.29 100.529 294.458 99.9151 296.722 99.9151C299.446 99.9151 301.691 100.529 303.456 101.757C305.259 102.947 306.602 104.577 307.485 106.65C308.406 108.683 308.866 111.005 308.866 113.614C308.866 114.343 308.828 115.073 308.751 115.802C308.674 116.492 308.598 117.01 308.521 117.356H291.426C291.81 119.428 292.673 120.963 294.016 121.961C295.359 122.92 296.971 123.4 298.851 123.4C300.885 123.4 302.938 122.766 305.01 121.5L307.83 126.623C306.372 127.621 304.741 128.407 302.938 128.983C301.134 129.559 299.388 129.846 297.7 129.846ZM291.369 111.772H301.672C301.672 110.199 301.288 108.914 300.52 107.916C299.791 106.88 298.583 106.362 296.894 106.362C295.59 106.362 294.419 106.822 293.383 107.743C292.347 108.626 291.676 109.969 291.369 111.772Z" fill="#002060"/>
<path d="M322.483 129.846C319.567 129.846 317.533 128.983 316.382 127.256C315.269 125.491 314.713 123.169 314.713 120.291V88.8059H323.174V120.637C323.174 121.519 323.327 122.133 323.634 122.479C323.979 122.824 324.325 122.997 324.67 122.997C324.862 122.997 325.015 122.997 325.131 122.997C325.284 122.958 325.476 122.92 325.706 122.882L326.742 129.156C326.282 129.348 325.687 129.501 324.958 129.616C324.267 129.77 323.442 129.846 322.483 129.846Z" fill="#002060"/>
<path d="M339.585 129.846C337.705 129.846 335.767 129.482 333.772 128.753C331.815 128.024 330.107 127.064 328.649 125.875L332.448 120.579C333.753 121.539 335 122.287 336.189 122.824C337.417 123.323 338.626 123.572 339.815 123.572C341.082 123.572 342.002 123.361 342.578 122.939C343.154 122.479 343.441 121.884 343.441 121.155C343.441 120.502 343.154 119.965 342.578 119.543C342.041 119.121 341.331 118.737 340.448 118.392C339.566 118.008 338.626 117.624 337.628 117.241C336.477 116.78 335.326 116.205 334.175 115.514C333.062 114.823 332.122 113.941 331.354 112.866C330.587 111.753 330.203 110.41 330.203 108.837C330.203 106.189 331.201 104.04 333.196 102.39C335.23 100.74 337.878 99.9151 341.139 99.9151C343.326 99.9151 345.245 100.299 346.895 101.066C348.583 101.795 350.022 102.62 351.212 103.541L347.413 108.607C346.415 107.839 345.418 107.244 344.42 106.822C343.422 106.4 342.425 106.189 341.427 106.189C339.24 106.189 338.146 106.937 338.146 108.434C338.146 109.355 338.683 110.065 339.758 110.564C340.87 111.024 342.156 111.523 343.614 112.06C344.842 112.482 346.031 113.039 347.183 113.73C348.372 114.382 349.351 115.264 350.118 116.377C350.924 117.452 351.327 118.872 351.327 120.637C351.327 123.208 350.329 125.395 348.334 127.199C346.338 128.964 343.422 129.846 339.585 129.846Z" fill="#002060"/>
<path d="M369.478 129.846C366.754 129.846 364.298 129.252 362.111 128.062C359.923 126.872 358.197 125.165 356.93 122.939C355.664 120.714 355.031 118.027 355.031 114.881C355.031 111.772 355.664 109.106 356.93 106.88C358.235 104.654 359.923 102.947 361.995 101.757C364.068 100.529 366.236 99.9151 368.499 99.9151C371.224 99.9151 373.469 100.529 375.234 101.757C377.037 102.947 378.38 104.577 379.263 106.65C380.184 108.683 380.644 111.005 380.644 113.614C380.644 114.343 380.606 115.073 380.529 115.802C380.452 116.492 380.375 117.01 380.299 117.356H363.204C363.588 119.428 364.451 120.963 365.794 121.961C367.137 122.92 368.749 123.4 370.629 123.4C372.663 123.4 374.716 122.766 376.788 121.5L379.608 126.623C378.15 127.621 376.519 128.407 374.716 128.983C372.912 129.559 371.166 129.846 369.478 129.846ZM363.147 111.772H373.449C373.449 110.199 373.066 108.914 372.298 107.916C371.569 106.88 370.36 106.362 368.672 106.362C367.367 106.362 366.197 106.822 365.161 107.743C364.125 108.626 363.454 109.969 363.147 111.772Z" fill="#002060"/>
<path d="M360.999 78.1309C354.759 77.5359 354.419 74.4996 353.762 72.417L353.774 78.1309H360.999Z" fill="#CCE9F2"/>
</svg>
